<mxfile host="app.diagrams.net" modified="2023-11-26T21:47:45.741Z" agent="Mozilla/5.0 (Macintosh; Intel Mac OS X 10_15_7) AppleWebKit/537.36 (KHTML, like Gecko) Chrome/119.0.0.0 Safari/537.36" etag="6ps17bJ_jVczhzKQfwrd" version="22.0.8" type="device">
  <diagram name="Page-1" id="6hmXqRTawedPWsX36qjB">
    <mxGraphModel dx="1122" dy="718" grid="1" gridSize="10" guides="1" tooltips="1" connect="1" arrows="1" fold="1" page="1" pageScale="1" pageWidth="827" pageHeight="1169" math="0" shadow="0">
      <root>
        <mxCell id="0" />
        <mxCell id="1" parent="0" />
        <mxCell id="YaNraWqDgT7-iZu1dpb6-29" value="" style="endArrow=none;html=1;rounded=0;strokeColor=#FCFCFC;" edge="1" parent="1">
          <mxGeometry width="50" height="50" relative="1" as="geometry">
            <mxPoint x="440" y="822.5" as="sourcePoint" />
            <mxPoint x="440" y="757.5" as="targetPoint" />
          </mxGeometry>
        </mxCell>
        <mxCell id="YaNraWqDgT7-iZu1dpb6-34" value="" style="endArrow=none;html=1;rounded=0;" edge="1" parent="1">
          <mxGeometry width="50" height="50" relative="1" as="geometry">
            <mxPoint x="680" y="840" as="sourcePoint" />
            <mxPoint x="680" y="480" as="targetPoint" />
          </mxGeometry>
        </mxCell>
        <mxCell id="YaNraWqDgT7-iZu1dpb6-35" value="" style="endArrow=none;html=1;rounded=0;" edge="1" parent="1">
          <mxGeometry width="50" height="50" relative="1" as="geometry">
            <mxPoint x="240" y="840" as="sourcePoint" />
            <mxPoint x="680" y="840" as="targetPoint" />
          </mxGeometry>
        </mxCell>
        <mxCell id="YaNraWqDgT7-iZu1dpb6-36" value="" style="endArrow=none;html=1;rounded=0;" edge="1" parent="1">
          <mxGeometry width="50" height="50" relative="1" as="geometry">
            <mxPoint x="240" y="480" as="sourcePoint" />
            <mxPoint x="240" y="840" as="targetPoint" />
          </mxGeometry>
        </mxCell>
        <mxCell id="YaNraWqDgT7-iZu1dpb6-45" value="UML-diagram" style="text;html=1;strokeColor=none;fillColor=none;align=center;verticalAlign=middle;whiteSpace=wrap;rounded=0;" vertex="1" parent="1">
          <mxGeometry x="180" y="930" width="60" height="30" as="geometry" />
        </mxCell>
        <mxCell id="YaNraWqDgT7-iZu1dpb6-54" value="" style="endArrow=none;html=1;rounded=0;" edge="1" parent="1">
          <mxGeometry width="50" height="50" relative="1" as="geometry">
            <mxPoint x="880" y="840" as="sourcePoint" />
            <mxPoint x="880" y="480" as="targetPoint" />
          </mxGeometry>
        </mxCell>
        <mxCell id="YaNraWqDgT7-iZu1dpb6-55" value="" style="endArrow=none;html=1;rounded=0;" edge="1" parent="1">
          <mxGeometry width="50" height="50" relative="1" as="geometry">
            <mxPoint x="880" y="840" as="sourcePoint" />
            <mxPoint x="1320" y="840" as="targetPoint" />
          </mxGeometry>
        </mxCell>
        <mxCell id="YaNraWqDgT7-iZu1dpb6-56" value="" style="endArrow=none;html=1;rounded=0;" edge="1" parent="1">
          <mxGeometry width="50" height="50" relative="1" as="geometry">
            <mxPoint x="1320" y="480" as="sourcePoint" />
            <mxPoint x="1320" y="840" as="targetPoint" />
          </mxGeometry>
        </mxCell>
        <mxCell id="YaNraWqDgT7-iZu1dpb6-194" value="Arven" style="swimlane;fontStyle=0;childLayout=stackLayout;horizontal=1;startSize=30;horizontalStack=0;resizeParent=1;resizeParentMax=0;resizeLast=0;collapsible=1;marginBottom=0;whiteSpace=wrap;html=1;" vertex="1" parent="1">
          <mxGeometry x="510" y="980" width="140" height="90" as="geometry" />
        </mxCell>
        <mxCell id="YaNraWqDgT7-iZu1dpb6-195" value="x: int" style="text;strokeColor=none;fillColor=none;align=left;verticalAlign=middle;spacingLeft=4;spacingRight=4;overflow=hidden;points=[[0,0.5],[1,0.5]];portConstraint=eastwest;rotatable=0;whiteSpace=wrap;html=1;" vertex="1" parent="YaNraWqDgT7-iZu1dpb6-194">
          <mxGeometry y="30" width="140" height="30" as="geometry" />
        </mxCell>
        <mxCell id="YaNraWqDgT7-iZu1dpb6-196" value="y: int" style="text;strokeColor=none;fillColor=none;align=left;verticalAlign=middle;spacingLeft=4;spacingRight=4;overflow=hidden;points=[[0,0.5],[1,0.5]];portConstraint=eastwest;rotatable=0;whiteSpace=wrap;html=1;" vertex="1" parent="YaNraWqDgT7-iZu1dpb6-194">
          <mxGeometry y="60" width="140" height="30" as="geometry" />
        </mxCell>
        <mxCell id="YaNraWqDgT7-iZu1dpb6-210" value="" style="rounded=0;whiteSpace=wrap;html=1;" vertex="1" parent="1">
          <mxGeometry x="510" y="1070" width="140" height="60" as="geometry" />
        </mxCell>
        <mxCell id="YaNraWqDgT7-iZu1dpb6-211" value="p책nytt_brikke() (skal bruke self.original" style="text;strokeColor=none;fillColor=none;align=left;verticalAlign=middle;spacingLeft=4;spacingRight=4;overflow=hidden;points=[[0,0.5],[1,0.5]];portConstraint=eastwest;rotatable=0;whiteSpace=wrap;html=1;" vertex="1" parent="1">
          <mxGeometry x="511" y="1070" width="140" height="30" as="geometry" />
        </mxCell>
        <mxCell id="YaNraWqDgT7-iZu1dpb6-212" value="p책nytt_ball()" style="text;strokeColor=none;fillColor=none;align=left;verticalAlign=middle;spacingLeft=4;spacingRight=4;overflow=hidden;points=[[0,0.5],[1,0.5]];portConstraint=eastwest;rotatable=0;whiteSpace=wrap;html=1;" vertex="1" parent="1">
          <mxGeometry x="511" y="1100" width="140" height="30" as="geometry" />
        </mxCell>
        <mxCell id="YaNraWqDgT7-iZu1dpb6-224" value="" style="endArrow=none;html=1;rounded=0;" edge="1" parent="1">
          <mxGeometry width="50" height="50" relative="1" as="geometry">
            <mxPoint x="880" y="480" as="sourcePoint" />
            <mxPoint x="1320" y="480" as="targetPoint" />
          </mxGeometry>
        </mxCell>
        <mxCell id="YaNraWqDgT7-iZu1dpb6-225" value="" style="endArrow=none;html=1;rounded=0;" edge="1" parent="1">
          <mxGeometry width="50" height="50" relative="1" as="geometry">
            <mxPoint x="240" y="480" as="sourcePoint" />
            <mxPoint x="680" y="480" as="targetPoint" />
          </mxGeometry>
        </mxCell>
        <mxCell id="YaNraWqDgT7-iZu1dpb6-226" value="" style="endArrow=none;html=1;rounded=0;" edge="1" parent="1">
          <mxGeometry width="50" height="50" relative="1" as="geometry">
            <mxPoint x="270" y="600" as="sourcePoint" />
            <mxPoint x="270" y="690" as="targetPoint" />
          </mxGeometry>
        </mxCell>
        <mxCell id="YaNraWqDgT7-iZu1dpb6-227" value="" style="endArrow=none;html=1;rounded=0;" edge="1" parent="1">
          <mxGeometry width="50" height="50" relative="1" as="geometry">
            <mxPoint x="290" y="600" as="sourcePoint" />
            <mxPoint x="290" y="690" as="targetPoint" />
          </mxGeometry>
        </mxCell>
        <mxCell id="YaNraWqDgT7-iZu1dpb6-228" value="" style="endArrow=none;html=1;rounded=0;" edge="1" parent="1">
          <mxGeometry width="50" height="50" relative="1" as="geometry">
            <mxPoint x="650" y="600" as="sourcePoint" />
            <mxPoint x="650" y="690" as="targetPoint" />
          </mxGeometry>
        </mxCell>
        <mxCell id="YaNraWqDgT7-iZu1dpb6-229" value="" style="endArrow=none;html=1;rounded=0;" edge="1" parent="1">
          <mxGeometry width="50" height="50" relative="1" as="geometry">
            <mxPoint x="630" y="600" as="sourcePoint" />
            <mxPoint x="630" y="690" as="targetPoint" />
          </mxGeometry>
        </mxCell>
        <mxCell id="YaNraWqDgT7-iZu1dpb6-230" value="" style="endArrow=none;html=1;rounded=0;" edge="1" parent="1">
          <mxGeometry width="50" height="50" relative="1" as="geometry">
            <mxPoint x="270" y="600" as="sourcePoint" />
            <mxPoint x="290" y="600" as="targetPoint" />
          </mxGeometry>
        </mxCell>
        <mxCell id="YaNraWqDgT7-iZu1dpb6-232" value="" style="endArrow=none;html=1;rounded=0;" edge="1" parent="1">
          <mxGeometry width="50" height="50" relative="1" as="geometry">
            <mxPoint x="270" y="690" as="sourcePoint" />
            <mxPoint x="290" y="690" as="targetPoint" />
          </mxGeometry>
        </mxCell>
        <mxCell id="YaNraWqDgT7-iZu1dpb6-233" value="" style="endArrow=none;html=1;rounded=0;" edge="1" parent="1">
          <mxGeometry width="50" height="50" relative="1" as="geometry">
            <mxPoint x="630" y="600" as="sourcePoint" />
            <mxPoint x="650" y="600" as="targetPoint" />
          </mxGeometry>
        </mxCell>
        <mxCell id="YaNraWqDgT7-iZu1dpb6-234" value="" style="endArrow=none;html=1;rounded=0;" edge="1" parent="1">
          <mxGeometry width="50" height="50" relative="1" as="geometry">
            <mxPoint x="630" y="690" as="sourcePoint" />
            <mxPoint x="650" y="690" as="targetPoint" />
          </mxGeometry>
        </mxCell>
        <mxCell id="YaNraWqDgT7-iZu1dpb6-235" value="" style="endArrow=none;html=1;rounded=0;" edge="1" parent="1">
          <mxGeometry width="50" height="50" relative="1" as="geometry">
            <mxPoint x="460" y="840" as="sourcePoint" />
            <mxPoint x="460" y="480" as="targetPoint" />
          </mxGeometry>
        </mxCell>
        <mxCell id="YaNraWqDgT7-iZu1dpb6-236" value="" style="endArrow=none;html=1;rounded=0;" edge="1" parent="1">
          <mxGeometry width="50" height="50" relative="1" as="geometry">
            <mxPoint x="470" y="840" as="sourcePoint" />
            <mxPoint x="470" y="480" as="targetPoint" />
          </mxGeometry>
        </mxCell>
        <mxCell id="YaNraWqDgT7-iZu1dpb6-237" value="Poeng (m책 f책 20 poeng)" style="text;html=1;strokeColor=none;fillColor=none;align=center;verticalAlign=middle;whiteSpace=wrap;rounded=0;" vertex="1" parent="1">
          <mxGeometry x="480" y="510" width="180" height="30" as="geometry" />
        </mxCell>
        <mxCell id="YaNraWqDgT7-iZu1dpb6-238" value="Poeng (m책 f책 20 poeng)" style="text;html=1;strokeColor=none;fillColor=none;align=center;verticalAlign=middle;whiteSpace=wrap;rounded=0;" vertex="1" parent="1">
          <mxGeometry x="270" y="510" width="150" height="30" as="geometry" />
        </mxCell>
        <mxCell id="YaNraWqDgT7-iZu1dpb6-239" value="" style="ellipse;whiteSpace=wrap;html=1;aspect=fixed;" vertex="1" parent="1">
          <mxGeometry x="360" y="600" width="10" height="10" as="geometry" />
        </mxCell>
        <mxCell id="YaNraWqDgT7-iZu1dpb6-240" value="_____ Vant" style="text;html=1;strokeColor=none;fillColor=none;align=center;verticalAlign=middle;whiteSpace=wrap;rounded=0;" vertex="1" parent="1">
          <mxGeometry x="1020" y="630" width="150" height="30" as="geometry" />
        </mxCell>
        <mxCell id="YaNraWqDgT7-iZu1dpb6-241" value="Spill skjerm" style="text;html=1;strokeColor=none;fillColor=none;align=center;verticalAlign=middle;whiteSpace=wrap;rounded=0;" vertex="1" parent="1">
          <mxGeometry x="370" y="410" width="150" height="30" as="geometry" />
        </mxCell>
        <mxCell id="YaNraWqDgT7-iZu1dpb6-242" value="Vinn skjerm" style="text;html=1;strokeColor=none;fillColor=none;align=center;verticalAlign=middle;whiteSpace=wrap;rounded=0;" vertex="1" parent="1">
          <mxGeometry x="1020" y="410" width="150" height="30" as="geometry" />
        </mxCell>
        <mxCell id="YaNraWqDgT7-iZu1dpb6-243" value="Pong arv" style="text;html=1;strokeColor=none;fillColor=none;align=center;verticalAlign=middle;whiteSpace=wrap;rounded=0;" vertex="1" parent="1">
          <mxGeometry x="510" y="940" width="60" height="30" as="geometry" />
        </mxCell>
        <mxCell id="YaNraWqDgT7-iZu1dpb6-244" value="Brikke (arver Arven)" style="swimlane;fontStyle=0;childLayout=stackLayout;horizontal=1;startSize=30;horizontalStack=0;resizeParent=1;resizeParentMax=0;resizeLast=0;collapsible=1;marginBottom=0;whiteSpace=wrap;html=1;" vertex="1" parent="1">
          <mxGeometry x="720" y="1130" width="140" height="90" as="geometry" />
        </mxCell>
        <mxCell id="YaNraWqDgT7-iZu1dpb6-245" value="bredde: int" style="text;strokeColor=none;fillColor=none;align=left;verticalAlign=middle;spacingLeft=4;spacingRight=4;overflow=hidden;points=[[0,0.5],[1,0.5]];portConstraint=eastwest;rotatable=0;whiteSpace=wrap;html=1;" vertex="1" parent="YaNraWqDgT7-iZu1dpb6-244">
          <mxGeometry y="30" width="140" height="30" as="geometry" />
        </mxCell>
        <mxCell id="YaNraWqDgT7-iZu1dpb6-246" value="hoyde: int" style="text;strokeColor=none;fillColor=none;align=left;verticalAlign=middle;spacingLeft=4;spacingRight=4;overflow=hidden;points=[[0,0.5],[1,0.5]];portConstraint=eastwest;rotatable=0;whiteSpace=wrap;html=1;" vertex="1" parent="YaNraWqDgT7-iZu1dpb6-244">
          <mxGeometry y="60" width="140" height="30" as="geometry" />
        </mxCell>
        <mxCell id="YaNraWqDgT7-iZu1dpb6-247" value="" style="rounded=0;whiteSpace=wrap;html=1;" vertex="1" parent="1">
          <mxGeometry x="720" y="1220" width="140" height="60" as="geometry" />
        </mxCell>
        <mxCell id="YaNraWqDgT7-iZu1dpb6-248" value="tegn()" style="text;strokeColor=none;fillColor=none;align=left;verticalAlign=middle;spacingLeft=4;spacingRight=4;overflow=hidden;points=[[0,0.5],[1,0.5]];portConstraint=eastwest;rotatable=0;whiteSpace=wrap;html=1;" vertex="1" parent="1">
          <mxGeometry x="721" y="1220" width="140" height="30" as="geometry" />
        </mxCell>
        <mxCell id="YaNraWqDgT7-iZu1dpb6-249" value="beveg()" style="text;strokeColor=none;fillColor=none;align=left;verticalAlign=middle;spacingLeft=4;spacingRight=4;overflow=hidden;points=[[0,0.5],[1,0.5]];portConstraint=eastwest;rotatable=0;whiteSpace=wrap;html=1;" vertex="1" parent="1">
          <mxGeometry x="721" y="1250" width="140" height="30" as="geometry" />
        </mxCell>
        <mxCell id="YaNraWqDgT7-iZu1dpb6-251" value="" style="endArrow=none;html=1;rounded=0;" edge="1" parent="1">
          <mxGeometry width="50" height="50" relative="1" as="geometry">
            <mxPoint x="650" y="1060" as="sourcePoint" />
            <mxPoint x="790" y="1060" as="targetPoint" />
          </mxGeometry>
        </mxCell>
        <mxCell id="YaNraWqDgT7-iZu1dpb6-253" value="" style="endArrow=none;html=1;rounded=0;entryX=0.5;entryY=0;entryDx=0;entryDy=0;" edge="1" parent="1" target="YaNraWqDgT7-iZu1dpb6-244">
          <mxGeometry width="50" height="50" relative="1" as="geometry">
            <mxPoint x="790" y="1060" as="sourcePoint" />
            <mxPoint x="940" y="1060" as="targetPoint" />
          </mxGeometry>
        </mxCell>
        <mxCell id="YaNraWqDgT7-iZu1dpb6-254" value="Pong" style="text;html=1;strokeColor=none;fillColor=none;align=center;verticalAlign=middle;whiteSpace=wrap;rounded=0;" vertex="1" parent="1">
          <mxGeometry x="790" y="1100" width="60" height="30" as="geometry" />
        </mxCell>
        <mxCell id="YaNraWqDgT7-iZu1dpb6-267" value="Ball (arver Arven)" style="swimlane;fontStyle=0;childLayout=stackLayout;horizontal=1;startSize=30;horizontalStack=0;resizeParent=1;resizeParentMax=0;resizeLast=0;collapsible=1;marginBottom=0;whiteSpace=wrap;html=1;" vertex="1" parent="1">
          <mxGeometry x="300" y="1130" width="140" height="60" as="geometry" />
        </mxCell>
        <mxCell id="YaNraWqDgT7-iZu1dpb6-268" value="radius:int" style="text;strokeColor=none;fillColor=none;align=left;verticalAlign=middle;spacingLeft=4;spacingRight=4;overflow=hidden;points=[[0,0.5],[1,0.5]];portConstraint=eastwest;rotatable=0;whiteSpace=wrap;html=1;" vertex="1" parent="YaNraWqDgT7-iZu1dpb6-267">
          <mxGeometry y="30" width="140" height="30" as="geometry" />
        </mxCell>
        <mxCell id="YaNraWqDgT7-iZu1dpb6-270" value="" style="rounded=0;whiteSpace=wrap;html=1;" vertex="1" parent="1">
          <mxGeometry x="300" y="1190" width="140" height="60" as="geometry" />
        </mxCell>
        <mxCell id="YaNraWqDgT7-iZu1dpb6-271" value="tegn()" style="text;strokeColor=none;fillColor=none;align=left;verticalAlign=middle;spacingLeft=4;spacingRight=4;overflow=hidden;points=[[0,0.5],[1,0.5]];portConstraint=eastwest;rotatable=0;whiteSpace=wrap;html=1;" vertex="1" parent="1">
          <mxGeometry x="300" y="1190" width="140" height="30" as="geometry" />
        </mxCell>
        <mxCell id="YaNraWqDgT7-iZu1dpb6-272" value="beveg()" style="text;strokeColor=none;fillColor=none;align=left;verticalAlign=middle;spacingLeft=4;spacingRight=4;overflow=hidden;points=[[0,0.5],[1,0.5]];portConstraint=eastwest;rotatable=0;whiteSpace=wrap;html=1;" vertex="1" parent="1">
          <mxGeometry x="300" y="1220" width="140" height="30" as="geometry" />
        </mxCell>
        <mxCell id="YaNraWqDgT7-iZu1dpb6-273" value="" style="endArrow=none;html=1;rounded=0;entryX=0.5;entryY=0;entryDx=0;entryDy=0;" edge="1" parent="1" target="YaNraWqDgT7-iZu1dpb6-267">
          <mxGeometry width="50" height="50" relative="1" as="geometry">
            <mxPoint x="370" y="1060" as="sourcePoint" />
            <mxPoint x="520" y="1060" as="targetPoint" />
          </mxGeometry>
        </mxCell>
        <mxCell id="YaNraWqDgT7-iZu1dpb6-274" value="Pong" style="text;html=1;strokeColor=none;fillColor=none;align=center;verticalAlign=middle;whiteSpace=wrap;rounded=0;" vertex="1" parent="1">
          <mxGeometry x="370" y="1100" width="60" height="30" as="geometry" />
        </mxCell>
        <mxCell id="YaNraWqDgT7-iZu1dpb6-275" value="" style="endArrow=none;html=1;rounded=0;" edge="1" parent="1">
          <mxGeometry width="50" height="50" relative="1" as="geometry">
            <mxPoint x="370" y="1060" as="sourcePoint" />
            <mxPoint x="510" y="1060" as="targetPoint" />
          </mxGeometry>
        </mxCell>
        <mxCell id="YaNraWqDgT7-iZu1dpb6-283" value="de som ikke er arv eller inne i klasse" style="swimlane;fontStyle=0;childLayout=stackLayout;horizontal=1;startSize=30;horizontalStack=0;resizeParent=1;resizeParentMax=0;resizeLast=0;collapsible=1;marginBottom=0;whiteSpace=wrap;html=1;" vertex="1" parent="1">
          <mxGeometry x="509" y="1220" width="140" height="150" as="geometry" />
        </mxCell>
        <mxCell id="YaNraWqDgT7-iZu1dpb6-284" value="tegn()" style="text;strokeColor=none;fillColor=none;align=left;verticalAlign=middle;spacingLeft=4;spacingRight=4;overflow=hidden;points=[[0,0.5],[1,0.5]];portConstraint=eastwest;rotatable=0;whiteSpace=wrap;html=1;" vertex="1" parent="YaNraWqDgT7-iZu1dpb6-283">
          <mxGeometry y="30" width="140" height="30" as="geometry" />
        </mxCell>
        <mxCell id="YaNraWqDgT7-iZu1dpb6-285" value="kollisjoner()" style="text;strokeColor=none;fillColor=none;align=left;verticalAlign=middle;spacingLeft=4;spacingRight=4;overflow=hidden;points=[[0,0.5],[1,0.5]];portConstraint=eastwest;rotatable=0;whiteSpace=wrap;html=1;" vertex="1" parent="YaNraWqDgT7-iZu1dpb6-283">
          <mxGeometry y="60" width="140" height="30" as="geometry" />
        </mxCell>
        <mxCell id="YaNraWqDgT7-iZu1dpb6-290" value="&amp;nbsp;brikke_bevegelse()" style="text;html=1;strokeColor=none;fillColor=none;align=left;verticalAlign=middle;whiteSpace=wrap;rounded=0;" vertex="1" parent="YaNraWqDgT7-iZu1dpb6-283">
          <mxGeometry y="90" width="140" height="30" as="geometry" />
        </mxCell>
        <mxCell id="YaNraWqDgT7-iZu1dpb6-291" value="&amp;nbsp;main()" style="text;html=1;strokeColor=none;fillColor=none;align=left;verticalAlign=middle;whiteSpace=wrap;rounded=0;" vertex="1" parent="YaNraWqDgT7-iZu1dpb6-283">
          <mxGeometry y="120" width="140" height="30" as="geometry" />
        </mxCell>
        <mxCell id="YaNraWqDgT7-iZu1dpb6-289" value="Pong" style="text;html=1;strokeColor=none;fillColor=none;align=center;verticalAlign=middle;whiteSpace=wrap;rounded=0;" vertex="1" parent="1">
          <mxGeometry x="509" y="1190" width="111" height="30" as="geometry" />
        </mxCell>
        <mxCell id="YaNraWqDgT7-iZu1dpb6-292" value="Arver" style="text;html=1;strokeColor=none;fillColor=none;align=center;verticalAlign=middle;whiteSpace=wrap;rounded=0;" vertex="1" parent="1">
          <mxGeometry x="710" y="1030" width="60" height="30" as="geometry" />
        </mxCell>
        <mxCell id="YaNraWqDgT7-iZu1dpb6-293" value="Arver" style="text;html=1;strokeColor=none;fillColor=none;align=center;verticalAlign=middle;whiteSpace=wrap;rounded=0;" vertex="1" parent="1">
          <mxGeometry x="400" y="1030" width="60" height="30" as="geometry" />
        </mxCell>
        <mxCell id="YaNraWqDgT7-iZu1dpb6-295" value="" style="endArrow=none;html=1;rounded=0;" edge="1" parent="1">
          <mxGeometry width="50" height="50" relative="1" as="geometry">
            <mxPoint x="370" y="1250" as="sourcePoint" />
            <mxPoint x="370" y="1300" as="targetPoint" />
          </mxGeometry>
        </mxCell>
        <mxCell id="YaNraWqDgT7-iZu1dpb6-296" value="" style="endArrow=none;html=1;rounded=0;" edge="1" parent="1">
          <mxGeometry width="50" height="50" relative="1" as="geometry">
            <mxPoint x="790.69" y="1280" as="sourcePoint" />
            <mxPoint x="790" y="1300" as="targetPoint" />
          </mxGeometry>
        </mxCell>
        <mxCell id="YaNraWqDgT7-iZu1dpb6-297" value="" style="endArrow=none;html=1;rounded=0;" edge="1" parent="1">
          <mxGeometry width="50" height="50" relative="1" as="geometry">
            <mxPoint x="370" y="1300" as="sourcePoint" />
            <mxPoint x="509" y="1300" as="targetPoint" />
          </mxGeometry>
        </mxCell>
        <mxCell id="YaNraWqDgT7-iZu1dpb6-298" value="" style="endArrow=none;html=1;rounded=0;" edge="1" parent="1">
          <mxGeometry width="50" height="50" relative="1" as="geometry">
            <mxPoint x="649" y="1300" as="sourcePoint" />
            <mxPoint x="790" y="1300" as="targetPoint" />
          </mxGeometry>
        </mxCell>
        <mxCell id="YaNraWqDgT7-iZu1dpb6-300" value="Arver ikke" style="text;html=1;strokeColor=none;fillColor=none;align=center;verticalAlign=middle;whiteSpace=wrap;rounded=0;" vertex="1" parent="1">
          <mxGeometry x="414" y="1270" width="60" height="30" as="geometry" />
        </mxCell>
        <mxCell id="YaNraWqDgT7-iZu1dpb6-301" value="Arver ikke" style="text;html=1;strokeColor=none;fillColor=none;align=center;verticalAlign=middle;whiteSpace=wrap;rounded=0;" vertex="1" parent="1">
          <mxGeometry x="660" y="1270" width="60" height="30" as="geometry" />
        </mxCell>
        <mxCell id="YaNraWqDgT7-iZu1dpb6-302" value="I samme python fil" style="text;html=1;strokeColor=none;fillColor=none;align=center;verticalAlign=middle;whiteSpace=wrap;rounded=0;" vertex="1" parent="1">
          <mxGeometry x="415" y="1300" width="60" height="30" as="geometry" />
        </mxCell>
        <mxCell id="YaNraWqDgT7-iZu1dpb6-304" value="I samme python fil" style="text;html=1;strokeColor=none;fillColor=none;align=center;verticalAlign=middle;whiteSpace=wrap;rounded=0;" vertex="1" parent="1">
          <mxGeometry x="660" y="1300" width="60" height="30" as="geometry" />
        </mxCell>
        <mxCell id="YaNraWqDgT7-iZu1dpb6-306" value="" style="endArrow=classic;html=1;rounded=0;" edge="1" parent="1">
          <mxGeometry width="50" height="50" relative="1" as="geometry">
            <mxPoint x="350" y="620" as="sourcePoint" />
            <mxPoint x="300" y="660" as="targetPoint" />
          </mxGeometry>
        </mxCell>
        <mxCell id="YaNraWqDgT7-iZu1dpb6-307" value="" style="endArrow=classic;html=1;rounded=0;" edge="1" parent="1">
          <mxGeometry width="50" height="50" relative="1" as="geometry">
            <mxPoint x="300" y="680" as="sourcePoint" />
            <mxPoint x="420" y="750" as="targetPoint" />
          </mxGeometry>
        </mxCell>
      </root>
    </mxGraphModel>
  </diagram>
</mxfile>
